<?xml version="1.0" encoding="utf-8"?>
<!-- Generator: Adobe Illustrator 16.0.0, SVG Export Plug-In . SVG Version: 6.00 Build 0)  -->
<!DOCTYPE svg PUBLIC "-//W3C//DTD SVG 1.1//EN" "http://www.w3.org/Graphics/SVG/1.1/DTD/svg11.dtd">
<svg version="1.1" id="Capa_1" xmlns="http://www.w3.org/2000/svg" xmlns:xlink="http://www.w3.org/1999/xlink" x="0px" y="0px"
	 width="1920px" height="1080px" viewBox="0 0 1920 1080" enable-background="new 0 0 1920 1080" xml:space="preserve">
<g>
	<path fill="#FFFFFF" d="M1884.709,289.706c-17.168,0.051-31.127-13.825-31.178-30.993c0-0.071,0-0.143,0-0.214
		c0-17.128,13.806-31.391,31.36-31.391c17.168-0.051,31.126,13.826,31.177,30.994c0,0.071,0,0.143,0,0.213
		C1916.068,275.641,1902.033,289.69,1884.709,289.706 M1884.892,230.217c-15.4-0.119-27.981,12.269-28.102,27.669
		c-0.001,0.204-0.001,0.408,0.002,0.613c0,15.543,12.008,28.068,27.917,28.068c15.417,0.103,27.998-12.313,28.1-27.73
		c0.002-0.174,0.001-0.348-0.001-0.521c0.236-15.28-11.96-27.86-27.241-28.097C1885.342,230.216,1885.116,230.215,1884.892,230.217
		 M1891.779,261.516l8.838,12.374h-7.436l-7.924-11.338h-6.857v11.338h-6.217v-32.763h14.628c7.589,0,12.587,3.901,12.587,10.454
		C1899.398,256.945,1896.289,260.237,1891.779,261.516 M1886.537,246.736h-8.137v10.361h8.137c4.054,0,6.461-1.98,6.461-5.181
		C1892.998,248.564,1890.561,246.736,1886.537,246.736 M1496.32,139.459c-17.556-0.009-31.794,14.216-31.802,31.771
		c-0.009,17.555,14.216,31.793,31.771,31.802c17.563,0,31.802-14.238,31.802-31.802s-14.238-31.802-31.802-31.802 M1518.232,227.505
		h-44.313c-1.789,0.017-3.23,1.472-3.23,3.261v193.401c0,1.829,1.433,3.261,3.23,3.261h44.344c1.801,0,3.26-1.46,3.26-3.261V230.766
		c0-1.801-1.459-3.261-3.26-3.261 M1616.793,227.688v-6.096c0-18.042,6.918-26.087,22.43-26.087c9.234,0,16.641,1.828,24.991,4.632
		c1.689,0.572,3.523-0.333,4.096-2.023c0.118-0.349,0.177-0.716,0.171-1.085v-37.333c-0.006-1.433-0.945-2.694-2.316-3.109
		c-11.947-3.649-24.385-5.438-36.876-5.303c-40.93,0-62.567,23.07-62.567,66.683v9.387h-21.303c-1.79-0.001-3.245,1.441-3.262,3.23
		v38.309c0,1.798,1.463,3.261,3.262,3.261h21.303v152.076c0,1.768,1.432,3.23,3.23,3.23h44.343c1.789-0.018,3.23-1.473,3.23-3.262
		V272.122h41.387l63.421,152.075c-7.192,15.939-14.264,19.14-23.924,19.14c-7.832,0-16.062-2.347-24.473-6.949
		c-0.786-0.421-1.709-0.509-2.561-0.243c-0.859,0.293-1.557,0.935-1.92,1.768l-15.024,32.944c-0.725,1.544-0.124,3.386,1.372,4.206
		c15.694,8.503,29.866,12.129,47.359,12.129c32.731,0,50.834-15.237,66.773-56.289l76.922-198.766
		c0.673-1.652-0.121-3.537-1.772-4.211c-0.396-0.16-0.818-0.242-1.245-0.238h-46.141c-1.377,0.015-2.598,0.893-3.048,2.194
		l-47.299,135.04l-51.81-135.132c-0.47-1.261-1.672-2.099-3.018-2.103H1616.793 M1446.826,227.505h-48.762v-49.89
		c0-1.784-1.446-3.23-3.23-3.23c-0.01,0-0.02,0-0.03,0h-44.343c-1.777,0.017-3.214,1.453-3.23,3.23v49.89h-21.333
		c-1.784,0-3.23,1.446-3.23,3.229c0,0.011,0,0.021,0,0.031v38.095c0,1.799,1.463,3.262,3.23,3.262h21.333v98.56
		c0,39.862,19.81,60.038,58.941,60.038c15.908,0,29.074-3.261,41.508-10.301c1.023-0.576,1.653-1.661,1.646-2.835v-36.267
		c0.024-1.784-1.401-3.25-3.185-3.275c-0.524-0.008-1.042,0.112-1.509,0.35c-8.533,4.298-16.793,6.278-26.027,6.278
		c-14.232,0-20.571-6.431-20.571-20.906v-91.642h48.762c1.784,0.017,3.244-1.416,3.261-3.2c0.001-0.021,0.001-0.041,0-0.062v-38.095
		c0.018-1.784-1.415-3.244-3.199-3.261C1446.847,227.505,1446.837,227.505,1446.826,227.505 M1213.044,223.451
		c-59.733,0-106.575,46.019-106.575,104.746c0,58.118,46.506,103.619,105.844,103.619c59.946,0,106.91-45.836,106.91-104.351
		C1319.223,269.135,1272.594,223.451,1213.044,223.451 M1213.044,386.865c-31.787,0-55.771-25.539-55.771-59.429
		c0-33.98,23.161-58.636,55.04-58.636c32,0,56.076,25.539,56.076,59.429C1268.389,362.209,1245.135,386.865,1213.044,386.865
		 M999.283,223.451c-24.99,0-45.47,9.844-62.354,29.988v-22.674c0-1.789-1.441-3.244-3.23-3.261h-44.344
		c-1.789,0.017-3.23,1.472-3.23,3.261v252.038c0,1.768,1.463,3.23,3.23,3.23h44.344c1.777-0.017,3.214-1.453,3.23-3.23v-79.543
		c16.914,18.926,37.394,28.19,62.354,28.19c46.385,0,93.349-35.719,93.349-103.985C1092.632,259.2,1045.699,223.451,999.283,223.451
		 M1041.097,327.466c0,34.743-21.425,59.033-52.083,59.033c-30.324,0-53.182-25.387-53.182-59.033
		c0-33.646,22.857-59.032,53.182-59.032c30.171,0,52.113,24.808,52.113,59.032 M784,272.305
		c-49.493-11.825-58.301-20.114-58.301-37.517c0-16.457,15.481-27.52,38.521-27.52c22.309,0,44.465,8.381,67.657,25.691
		c1.448,1.069,3.49,0.763,4.561-0.687c0.004-0.005,0.007-0.01,0.011-0.015l24.198-34.103c0.975-1.397,0.709-3.31-0.609-4.389
		c-27.611-22.187-58.728-32.945-95.086-32.945c-53.485,0-90.819,32.062-90.819,77.989c0,49.219,32.214,66.651,87.894,80.091
		c47.36,10.91,55.375,20.054,55.375,36.419c0,18.103-16.152,29.349-42.209,29.349c-28.892,0-52.45-9.752-78.842-32.549
		c-0.66-0.562-1.513-0.845-2.377-0.792c-0.868,0.067-1.672,0.485-2.226,1.158l-27.123,32.244c-1.152,1.338-1.002,3.356,0.335,4.51
		c29.884,27.075,68.811,42,109.135,41.844c57.601,0,94.843-31.481,94.843-80.183c0-41.173-24.595-63.938-84.938-78.628
		 M289.737,9.295C131.353,9.295,2.956,137.692,2.956,296.076s128.396,286.78,286.781,286.78s286.78-128.396,286.78-286.78
		S448.122,9.295,289.737,9.295 M421.272,422.918c-5.126,8.427-16.113,11.103-24.539,5.977c-0.019-0.012-0.037-0.022-0.055-0.034
		c-67.353-41.143-152.076-50.438-251.917-27.642c-9.619,2.196-19.198-3.821-21.394-13.44c-2.197-9.619,3.821-19.197,13.44-21.394
		c109.227-24.991,202.941-14.232,278.522,31.969C423.741,403.504,426.393,414.506,421.272,422.918 M456.32,344.838
		c-6.457,10.505-20.198,13.804-30.721,7.375c-77.074-47.391-194.59-61.104-285.775-33.433c-12.037,2.855-24.11-4.587-26.965-16.624
		c-2.61-11.001,3.387-22.221,13.982-26.164c104.168-31.604,233.63-16.274,322.134,38.095c10.534,6.454,13.842,20.227,7.388,30.761
		c-0.005,0.007-0.009,0.014-0.013,0.021 M459.398,263.528c-92.465-54.888-244.968-59.946-333.196-33.128
		c-14.111,4.502-29.2-3.288-33.701-17.399s3.289-29.2,17.399-33.701c0.242-0.077,0.484-0.15,0.728-0.221
		c101.272-30.781,269.684-24.808,376.077,38.339c12.741,7.558,16.943,24.013,9.387,36.754c-7.558,12.742-24.014,16.944-36.755,9.387
		l0,0"/>
</g>
</svg>
